<mxfile host="app.diagrams.net" agent="Mozilla/5.0 (Windows NT 10.0; Win64; x64) AppleWebKit/537.36 (KHTML, like Gecko) Chrome/130.0.0.0 Safari/537.36" version="24.8.4">
  <diagram name="Pagina-1" id="FmpwrnC4S130MPwxNVh8">
    <mxGraphModel dx="2477" dy="1277" grid="1" gridSize="10" guides="1" tooltips="1" connect="1" arrows="1" fold="1" page="1" pageScale="1" pageWidth="1169" pageHeight="1654" math="0" shadow="0">
      <root>
        <mxCell id="0" />
        <mxCell id="1" parent="0" />
        <mxCell id="remQ6vA6hqzDudol_qhy-1" value="Main" style="rounded=1;whiteSpace=wrap;html=1;" vertex="1" parent="1">
          <mxGeometry x="280" y="160" width="120" height="60" as="geometry" />
        </mxCell>
        <mxCell id="remQ6vA6hqzDudol_qhy-2" value="ledLogic" style="rounded=1;whiteSpace=wrap;html=1;" vertex="1" parent="1">
          <mxGeometry x="560" y="160" width="120" height="60" as="geometry" />
        </mxCell>
        <mxCell id="remQ6vA6hqzDudol_qhy-3" value="checkIfAtFloor()" style="rounded=1;whiteSpace=wrap;html=1;" vertex="1" parent="1">
          <mxGeometry x="840" y="160" width="120" height="60" as="geometry" />
        </mxCell>
        <mxCell id="remQ6vA6hqzDudol_qhy-4" value="" style="endArrow=none;html=1;rounded=0;exitX=0.5;exitY=1;exitDx=0;exitDy=0;" edge="1" parent="1" source="remQ6vA6hqzDudol_qhy-1">
          <mxGeometry width="50" height="50" relative="1" as="geometry">
            <mxPoint x="300" y="230" as="sourcePoint" />
            <mxPoint x="340" y="640" as="targetPoint" />
          </mxGeometry>
        </mxCell>
        <mxCell id="remQ6vA6hqzDudol_qhy-5" value="" style="endArrow=classic;html=1;rounded=0;endFill=1;" edge="1" parent="1">
          <mxGeometry width="50" height="50" relative="1" as="geometry">
            <mxPoint x="340" y="280" as="sourcePoint" />
            <mxPoint x="620" y="280" as="targetPoint" />
          </mxGeometry>
        </mxCell>
        <mxCell id="remQ6vA6hqzDudol_qhy-6" value="" style="endArrow=none;html=1;rounded=0;exitX=0.5;exitY=1;exitDx=0;exitDy=0;" edge="1" parent="1">
          <mxGeometry width="50" height="50" relative="1" as="geometry">
            <mxPoint x="619.5" y="220" as="sourcePoint" />
            <mxPoint x="619.5" y="480" as="targetPoint" />
          </mxGeometry>
        </mxCell>
        <mxCell id="remQ6vA6hqzDudol_qhy-7" value="" style="endArrow=none;html=1;rounded=0;exitX=0.5;exitY=1;exitDx=0;exitDy=0;" edge="1" parent="1">
          <mxGeometry width="50" height="50" relative="1" as="geometry">
            <mxPoint x="907" y="220" as="sourcePoint" />
            <mxPoint x="907" y="640" as="targetPoint" />
          </mxGeometry>
        </mxCell>
        <mxCell id="remQ6vA6hqzDudol_qhy-8" value="Init state" style="text;html=1;align=left;verticalAlign=bottom;whiteSpace=wrap;rounded=0;" vertex="1" parent="1">
          <mxGeometry x="340" y="250" width="140" height="30" as="geometry" />
        </mxCell>
        <mxCell id="remQ6vA6hqzDudol_qhy-9" value="" style="endArrow=classic;html=1;rounded=0;endFill=1;" edge="1" parent="1">
          <mxGeometry width="50" height="50" relative="1" as="geometry">
            <mxPoint x="340" y="320" as="sourcePoint" />
            <mxPoint x="620" y="320" as="targetPoint" />
          </mxGeometry>
        </mxCell>
        <mxCell id="remQ6vA6hqzDudol_qhy-10" value="Set target floor" style="text;html=1;align=left;verticalAlign=bottom;whiteSpace=wrap;rounded=0;" vertex="1" parent="1">
          <mxGeometry x="340" y="290" width="140" height="30" as="geometry" />
        </mxCell>
        <mxCell id="remQ6vA6hqzDudol_qhy-11" value="" style="endArrow=classic;html=1;rounded=0;endFill=1;" edge="1" parent="1">
          <mxGeometry width="50" height="50" relative="1" as="geometry">
            <mxPoint x="340" y="360" as="sourcePoint" />
            <mxPoint x="910" y="360" as="targetPoint" />
          </mxGeometry>
        </mxCell>
        <mxCell id="remQ6vA6hqzDudol_qhy-12" value="Check floor" style="text;html=1;align=left;verticalAlign=bottom;whiteSpace=wrap;rounded=0;" vertex="1" parent="1">
          <mxGeometry x="340" y="330" width="140" height="30" as="geometry" />
        </mxCell>
        <mxCell id="remQ6vA6hqzDudol_qhy-13" value="" style="endArrow=none;html=1;rounded=0;endFill=0;startArrow=classic;startFill=1;" edge="1" parent="1">
          <mxGeometry width="50" height="50" relative="1" as="geometry">
            <mxPoint x="620" y="400" as="sourcePoint" />
            <mxPoint x="910" y="400" as="targetPoint" />
          </mxGeometry>
        </mxCell>
        <mxCell id="remQ6vA6hqzDudol_qhy-14" value="Return true / false" style="text;html=1;align=right;verticalAlign=bottom;whiteSpace=wrap;rounded=0;" vertex="1" parent="1">
          <mxGeometry x="767" y="370" width="140" height="30" as="geometry" />
        </mxCell>
        <mxCell id="remQ6vA6hqzDudol_qhy-18" value="" style="endArrow=classic;html=1;rounded=0;endFill=1;" edge="1" parent="1">
          <mxGeometry width="50" height="50" relative="1" as="geometry">
            <mxPoint x="340" y="440" as="sourcePoint" />
            <mxPoint x="620" y="440" as="targetPoint" />
          </mxGeometry>
        </mxCell>
        <mxCell id="remQ6vA6hqzDudol_qhy-19" value="Open door" style="text;html=1;align=left;verticalAlign=bottom;whiteSpace=wrap;rounded=0;" vertex="1" parent="1">
          <mxGeometry x="340" y="410" width="140" height="30" as="geometry" />
        </mxCell>
        <mxCell id="remQ6vA6hqzDudol_qhy-20" value="" style="endArrow=none;html=1;rounded=0;exitX=0.5;exitY=1;exitDx=0;exitDy=0;" edge="1" parent="1">
          <mxGeometry width="50" height="50" relative="1" as="geometry">
            <mxPoint x="619.5" y="220" as="sourcePoint" />
            <mxPoint x="620" y="640" as="targetPoint" />
          </mxGeometry>
        </mxCell>
        <mxCell id="remQ6vA6hqzDudol_qhy-21" value="" style="endArrow=classic;html=1;rounded=0;endFill=1;" edge="1" parent="1">
          <mxGeometry width="50" height="50" relative="1" as="geometry">
            <mxPoint x="340" y="520" as="sourcePoint" />
            <mxPoint x="910" y="520" as="targetPoint" />
          </mxGeometry>
        </mxCell>
        <mxCell id="remQ6vA6hqzDudol_qhy-22" value="Wait for user input" style="text;html=1;align=left;verticalAlign=bottom;whiteSpace=wrap;rounded=0;" vertex="1" parent="1">
          <mxGeometry x="340" y="490" width="140" height="30" as="geometry" />
        </mxCell>
        <mxCell id="remQ6vA6hqzDudol_qhy-23" value="" style="endArrow=classic;html=1;rounded=0;endFill=1;" edge="1" parent="1">
          <mxGeometry width="50" height="50" relative="1" as="geometry">
            <mxPoint x="340" y="560" as="sourcePoint" />
            <mxPoint x="620" y="560" as="targetPoint" />
          </mxGeometry>
        </mxCell>
        <mxCell id="remQ6vA6hqzDudol_qhy-24" value="Move to target floor" style="text;html=1;align=left;verticalAlign=bottom;whiteSpace=wrap;rounded=0;" vertex="1" parent="1">
          <mxGeometry x="340" y="530" width="140" height="30" as="geometry" />
        </mxCell>
        <mxCell id="remQ6vA6hqzDudol_qhy-25" value="" style="endArrow=none;html=1;rounded=0;endFill=0;startArrow=classic;startFill=1;" edge="1" parent="1">
          <mxGeometry width="50" height="50" relative="1" as="geometry">
            <mxPoint x="340" y="400" as="sourcePoint" />
            <mxPoint x="620" y="400" as="targetPoint" />
          </mxGeometry>
        </mxCell>
        <mxCell id="remQ6vA6hqzDudol_qhy-26" value="At target floor" style="text;html=1;align=left;verticalAlign=bottom;whiteSpace=wrap;rounded=0;" vertex="1" parent="1">
          <mxGeometry x="340" y="370" width="140" height="30" as="geometry" />
        </mxCell>
        <mxCell id="remQ6vA6hqzDudol_qhy-27" value="" style="endArrow=classic;html=1;rounded=0;endFill=1;" edge="1" parent="1">
          <mxGeometry width="50" height="50" relative="1" as="geometry">
            <mxPoint x="340" y="600" as="sourcePoint" />
            <mxPoint x="620" y="600" as="targetPoint" />
          </mxGeometry>
        </mxCell>
        <mxCell id="remQ6vA6hqzDudol_qhy-28" value="Open door" style="text;html=1;align=left;verticalAlign=bottom;whiteSpace=wrap;rounded=0;" vertex="1" parent="1">
          <mxGeometry x="340" y="570" width="140" height="30" as="geometry" />
        </mxCell>
        <mxCell id="remQ6vA6hqzDudol_qhy-29" value="&lt;span style=&quot;color: rgb(73, 76, 78); font-family: Lato, sans-serif; font-size: 19px; text-align: left; background-color: rgb(255, 255, 255);&quot;&gt;Sequence diagram depicting the communication between the tasks&lt;/span&gt;" style="text;html=1;align=center;verticalAlign=middle;whiteSpace=wrap;rounded=0;" vertex="1" parent="1">
          <mxGeometry x="120" y="80" width="610" height="30" as="geometry" />
        </mxCell>
        <mxCell id="remQ6vA6hqzDudol_qhy-30" value="Main" style="rounded=1;whiteSpace=wrap;html=1;" vertex="1" parent="1">
          <mxGeometry x="400" y="960" width="120" height="60" as="geometry" />
        </mxCell>
        <mxCell id="remQ6vA6hqzDudol_qhy-33" value="" style="endArrow=none;html=1;rounded=0;exitX=0.5;exitY=1;exitDx=0;exitDy=0;" edge="1" parent="1" source="remQ6vA6hqzDudol_qhy-30">
          <mxGeometry width="50" height="50" relative="1" as="geometry">
            <mxPoint x="420" y="1030" as="sourcePoint" />
            <mxPoint x="460" y="1520" as="targetPoint" />
          </mxGeometry>
        </mxCell>
        <mxCell id="remQ6vA6hqzDudol_qhy-34" value="" style="endArrow=none;html=1;rounded=0;endFill=0;" edge="1" parent="1">
          <mxGeometry width="50" height="50" relative="1" as="geometry">
            <mxPoint x="460" y="1080" as="sourcePoint" />
            <mxPoint x="640" y="1080" as="targetPoint" />
          </mxGeometry>
        </mxCell>
        <mxCell id="remQ6vA6hqzDudol_qhy-37" value="Init state" style="text;html=1;align=left;verticalAlign=bottom;whiteSpace=wrap;rounded=0;" vertex="1" parent="1">
          <mxGeometry x="460" y="1050" width="140" height="30" as="geometry" />
        </mxCell>
        <mxCell id="remQ6vA6hqzDudol_qhy-55" value="&lt;span style=&quot;color: rgb(73, 76, 78); font-family: Lato, sans-serif; font-size: 19px; text-align: left; background-color: rgb(255, 255, 255);&quot;&gt;Sequence diagram showing the calling of the function by the task&lt;/span&gt;" style="text;html=1;align=center;verticalAlign=middle;whiteSpace=wrap;rounded=0;" vertex="1" parent="1">
          <mxGeometry x="240" y="880" width="610" height="30" as="geometry" />
        </mxCell>
        <mxCell id="remQ6vA6hqzDudol_qhy-56" value="checkIfAtFloor" style="rounded=1;whiteSpace=wrap;html=1;" vertex="1" parent="1">
          <mxGeometry x="760" y="960" width="120" height="60" as="geometry" />
        </mxCell>
        <mxCell id="remQ6vA6hqzDudol_qhy-57" value="" style="endArrow=none;html=1;rounded=0;exitX=0.5;exitY=1;exitDx=0;exitDy=0;" edge="1" parent="1">
          <mxGeometry width="50" height="50" relative="1" as="geometry">
            <mxPoint x="819.29" y="1020" as="sourcePoint" />
            <mxPoint x="819" y="1520" as="targetPoint" />
          </mxGeometry>
        </mxCell>
        <mxCell id="remQ6vA6hqzDudol_qhy-58" value="" style="endArrow=classic;html=1;rounded=0;endFill=1;entryX=0.5;entryY=1;entryDx=0;entryDy=0;" edge="1" parent="1" target="remQ6vA6hqzDudol_qhy-88">
          <mxGeometry width="50" height="50" relative="1" as="geometry">
            <mxPoint x="460" y="1120" as="sourcePoint" />
            <mxPoint x="820" y="1120" as="targetPoint" />
          </mxGeometry>
        </mxCell>
        <mxCell id="remQ6vA6hqzDudol_qhy-59" value="wait for&amp;nbsp;&lt;span style=&quot;background-color: initial;&quot;&gt;user input&lt;/span&gt;" style="text;html=1;align=left;verticalAlign=bottom;whiteSpace=wrap;rounded=0;" vertex="1" parent="1">
          <mxGeometry x="460" y="1090" width="140" height="30" as="geometry" />
        </mxCell>
        <mxCell id="remQ6vA6hqzDudol_qhy-60" value="" style="endArrow=none;html=1;rounded=0;endFill=0;startArrow=classic;startFill=1;" edge="1" parent="1">
          <mxGeometry width="50" height="50" relative="1" as="geometry">
            <mxPoint x="460" y="1200" as="sourcePoint" />
            <mxPoint x="820" y="1200" as="targetPoint" />
          </mxGeometry>
        </mxCell>
        <mxCell id="remQ6vA6hqzDudol_qhy-61" value="" style="endArrow=none;html=1;rounded=0;endFill=0;startArrow=classic;startFill=1;" edge="1" parent="1">
          <mxGeometry width="50" height="50" relative="1" as="geometry">
            <mxPoint x="460" y="1240" as="sourcePoint" />
            <mxPoint x="820" y="1240" as="targetPoint" />
          </mxGeometry>
        </mxCell>
        <mxCell id="remQ6vA6hqzDudol_qhy-62" value="" style="endArrow=none;html=1;rounded=0;endFill=0;startArrow=classic;startFill=1;" edge="1" parent="1">
          <mxGeometry width="50" height="50" relative="1" as="geometry">
            <mxPoint x="460" y="1280" as="sourcePoint" />
            <mxPoint x="820" y="1280" as="targetPoint" />
          </mxGeometry>
        </mxCell>
        <mxCell id="remQ6vA6hqzDudol_qhy-63" value="targetfloor == currentfloor" style="text;html=1;align=right;verticalAlign=bottom;whiteSpace=wrap;rounded=0;" vertex="1" parent="1">
          <mxGeometry x="680" y="1170" width="140" height="30" as="geometry" />
        </mxCell>
        <mxCell id="remQ6vA6hqzDudol_qhy-67" value="targetfloor &amp;lt; currentfloor" style="text;html=1;align=right;verticalAlign=bottom;whiteSpace=wrap;rounded=0;" vertex="1" parent="1">
          <mxGeometry x="680" y="1210" width="140" height="30" as="geometry" />
        </mxCell>
        <mxCell id="remQ6vA6hqzDudol_qhy-68" value="targetfloor &amp;gt; currentfloor" style="text;html=1;align=right;verticalAlign=bottom;whiteSpace=wrap;rounded=0;" vertex="1" parent="1">
          <mxGeometry x="680" y="1250" width="140" height="30" as="geometry" />
        </mxCell>
        <mxCell id="remQ6vA6hqzDudol_qhy-70" value="Set case 5" style="text;html=1;align=left;verticalAlign=bottom;whiteSpace=wrap;rounded=0;" vertex="1" parent="1">
          <mxGeometry x="460" y="1170" width="140" height="30" as="geometry" />
        </mxCell>
        <mxCell id="remQ6vA6hqzDudol_qhy-74" value="Set case 3" style="text;html=1;align=left;verticalAlign=bottom;whiteSpace=wrap;rounded=0;" vertex="1" parent="1">
          <mxGeometry x="460" y="1210" width="140" height="30" as="geometry" />
        </mxCell>
        <mxCell id="remQ6vA6hqzDudol_qhy-75" value="Set case 4" style="text;html=1;align=left;verticalAlign=bottom;whiteSpace=wrap;rounded=0;" vertex="1" parent="1">
          <mxGeometry x="460" y="1250" width="140" height="30" as="geometry" />
        </mxCell>
        <mxCell id="remQ6vA6hqzDudol_qhy-76" value="" style="endArrow=none;html=1;rounded=0;exitX=0.5;exitY=1;exitDx=0;exitDy=0;" edge="1" parent="1">
          <mxGeometry width="50" height="50" relative="1" as="geometry">
            <mxPoint x="640" y="1020" as="sourcePoint" />
            <mxPoint x="640" y="1520" as="targetPoint" />
          </mxGeometry>
        </mxCell>
        <mxCell id="remQ6vA6hqzDudol_qhy-77" value="" style="endArrow=classic;html=1;rounded=0;endFill=1;" edge="1" parent="1">
          <mxGeometry width="50" height="50" relative="1" as="geometry">
            <mxPoint x="460" y="1358" as="sourcePoint" />
            <mxPoint x="640" y="1360" as="targetPoint" />
          </mxGeometry>
        </mxCell>
        <mxCell id="remQ6vA6hqzDudol_qhy-78" value="Case 3 move down" style="text;html=1;align=left;verticalAlign=bottom;whiteSpace=wrap;rounded=0;" vertex="1" parent="1">
          <mxGeometry x="460" y="1328" width="140" height="30" as="geometry" />
        </mxCell>
        <mxCell id="remQ6vA6hqzDudol_qhy-79" value="Set case 2" style="text;html=1;align=right;verticalAlign=bottom;whiteSpace=wrap;rounded=0;" vertex="1" parent="1">
          <mxGeometry x="500" y="1328" width="140" height="30" as="geometry" />
        </mxCell>
        <mxCell id="remQ6vA6hqzDudol_qhy-80" value="" style="endArrow=classic;html=1;rounded=0;endFill=1;entryX=1;entryY=1;entryDx=0;entryDy=0;" edge="1" parent="1" target="remQ6vA6hqzDudol_qhy-82">
          <mxGeometry width="50" height="50" relative="1" as="geometry">
            <mxPoint x="460" y="1400" as="sourcePoint" />
            <mxPoint x="640" y="1402" as="targetPoint" />
          </mxGeometry>
        </mxCell>
        <mxCell id="remQ6vA6hqzDudol_qhy-81" value="Case 4 move up" style="text;html=1;align=left;verticalAlign=bottom;whiteSpace=wrap;rounded=0;" vertex="1" parent="1">
          <mxGeometry x="460" y="1370" width="140" height="30" as="geometry" />
        </mxCell>
        <mxCell id="remQ6vA6hqzDudol_qhy-82" value="Set case 2" style="text;html=1;align=right;verticalAlign=bottom;whiteSpace=wrap;rounded=0;" vertex="1" parent="1">
          <mxGeometry x="500" y="1370" width="140" height="30" as="geometry" />
        </mxCell>
        <mxCell id="remQ6vA6hqzDudol_qhy-83" value="" style="endArrow=classic;html=1;rounded=0;endFill=1;entryX=1;entryY=1;entryDx=0;entryDy=0;" edge="1" parent="1" target="remQ6vA6hqzDudol_qhy-85">
          <mxGeometry width="50" height="50" relative="1" as="geometry">
            <mxPoint x="460" y="1440" as="sourcePoint" />
            <mxPoint x="640" y="1442" as="targetPoint" />
          </mxGeometry>
        </mxCell>
        <mxCell id="remQ6vA6hqzDudol_qhy-84" value="Case 5 open door" style="text;html=1;align=left;verticalAlign=bottom;whiteSpace=wrap;rounded=0;" vertex="1" parent="1">
          <mxGeometry x="460" y="1410" width="140" height="30" as="geometry" />
        </mxCell>
        <mxCell id="remQ6vA6hqzDudol_qhy-85" value="Wait for inside&lt;div&gt;user input&lt;/div&gt;" style="text;html=1;align=right;verticalAlign=bottom;whiteSpace=wrap;rounded=0;" vertex="1" parent="1">
          <mxGeometry x="500" y="1410" width="140" height="30" as="geometry" />
        </mxCell>
        <mxCell id="remQ6vA6hqzDudol_qhy-88" value="Set case 2" style="text;html=1;align=left;verticalAlign=bottom;whiteSpace=wrap;rounded=0;" vertex="1" parent="1">
          <mxGeometry x="570" y="1090" width="140" height="30" as="geometry" />
        </mxCell>
        <mxCell id="remQ6vA6hqzDudol_qhy-89" value="" style="endArrow=classic;html=1;rounded=0;endFill=1;" edge="1" parent="1">
          <mxGeometry width="50" height="50" relative="1" as="geometry">
            <mxPoint x="460" y="1160" as="sourcePoint" />
            <mxPoint x="820" y="1160" as="targetPoint" />
          </mxGeometry>
        </mxCell>
        <mxCell id="remQ6vA6hqzDudol_qhy-90" value="Check current- and target floor" style="text;html=1;align=left;verticalAlign=bottom;whiteSpace=wrap;rounded=0;" vertex="1" parent="1">
          <mxGeometry x="460" y="1130" width="170" height="30" as="geometry" />
        </mxCell>
        <mxCell id="remQ6vA6hqzDudol_qhy-91" value="" style="endArrow=classic;html=1;rounded=0;endFill=1;entryX=1;entryY=1;entryDx=0;entryDy=0;" edge="1" parent="1">
          <mxGeometry width="50" height="50" relative="1" as="geometry">
            <mxPoint x="460" y="1480" as="sourcePoint" />
            <mxPoint x="640" y="1480" as="targetPoint" />
          </mxGeometry>
        </mxCell>
        <mxCell id="remQ6vA6hqzDudol_qhy-92" value="Case 2" style="text;html=1;align=right;verticalAlign=bottom;whiteSpace=wrap;rounded=0;" vertex="1" parent="1">
          <mxGeometry x="500" y="1450" width="140" height="30" as="geometry" />
        </mxCell>
        <mxCell id="remQ6vA6hqzDudol_qhy-94" value="User presses button" style="text;html=1;align=left;verticalAlign=bottom;whiteSpace=wrap;rounded=0;" vertex="1" parent="1">
          <mxGeometry x="460" y="1450" width="140" height="30" as="geometry" />
        </mxCell>
      </root>
    </mxGraphModel>
  </diagram>
</mxfile>
